PathFileType	4	(X/Y/Z)	C:/Users/beibeiliu/ov580/test_trc/User3\sequence.7_training_dense_left.trc
DataRate	CameraRate	NumFrames	NumMarkers	Units	OrigDataRate	OrigDataStartFrame	OrigNumFrames
120	120	11	19	mm	120	1	236
Frame#	Time	ThumbCMC			ThumbMCP			ThumbIP			ThumbTip			IndexMCP			IndexPIP			IndexTip			MiddleMCP			MiddlePIP			MiddleTip			RingMCP			RingPIP			RingTip			PinkyMCP			PinkyPIP			PinkyTip			BackHand1			BackHand2			BackHand3	
		X0	Y0	Z0	X1	Y1	Z1	X2	Y2	Z2	X3	Y3	Z3	X4	Y4	Z4	X5	Y5	Z5	X6	Y6	Z6	X7	Y7	Z7	X8	Y8	Z8	X9	Y9	Z9	X10	Y10	Z10	X11	Y11	Z11	X12	Y12	Z12	X13	Y13	Z13	X14	Y14	Z14	X15	Y15	Z15	X16	Y16	Z16	X17	Y17	Z17	X18	Y18	Z18	
0	0	-138.77	-31.7104	32.5999	-120.314	-44.7045	13.05	-100.817	-55.3828	-8.5724	-91.2509	-66.6792	-30.4064	-145.308	-19.1083	-46.5608	-134.721	-25.2752	-71.6706	-127.805	-38.1725	-100.004	-166.601	-16.4639	-56.6778	-163.357	-23.9153	-85.4672	-161.569	-42.2484	-113.357	-186.591	-20.1395	-53.1748	-187.49	-25.0249	-75.8995	-189.226	-39.8531	-100.537	-210.636	-24.8842	-39.4987	-211.823	-29.4618	-58.9071	-208.915	-38.9595	-82.9609	-192.785	-4.84864	-2.71845	-198.663	-2.61448	31.6172	-163.421	-5.06352	16.4546	
1	0.00833333	-140.986	-31.8162	30.4563	-119.995	-43.23	12.2041	-106.791	-54.0136	-9.86898	-93.566	-66.0999	-30.2349	-146.541	-18.6202	-47.8373	-136.818	-24.9992	-75.956	-131.144	-38.3273	-100.83	-166.575	-16.4558	-58.8671	-163.629	-22.8839	-82.8185	-162.987	-42.2241	-113.145	-192.174	-18.8252	-51.4632	-187.601	-25.349	-75.7625	-189.48	-41.9628	-104.685	-209.868	-25.1883	-34.9563	-212.783	-30.1425	-63.6599	-213.468	-37.2614	-82.6641	-196.347	-5.48674	1.026	-198.05	-1.26638	29.2252	-163.26	-5.83949	15.0398	
2	0.0166667	-141.969	-32.6105	32.5574	-122.725	-43.4116	14.6646	-103.441	-55.1088	-12.0952	-96.6156	-65.1777	-26.4874	-141.485	-19.7761	-50.0949	-137.865	-24.8142	-73.4942	-128.245	-36.6777	-96.4537	-169.663	-15.6347	-55.648	-164.346	-23.6534	-83.5387	-160.435	-41.1322	-111.327	-187.725	-19.1056	-48.595	-188.286	-27.3291	-79.5009	-191.134	-41.9932	-103.255	-211.438	-23.7334	-36.2674	-213.97	-29.7309	-61.1754	-212.661	-39.3206	-81.4501	-197.108	-4.72833	0.683984	-197.747	-3.00346	29.3495	-165.41	-6.16598	17.9601	
3	0.025	-137.749	-32.062	28.1104	-122.659	-43.4428	11.124	-105.132	-54.6668	-10.7001	-95.3498	-65.4424	-25.1869	-144.249	-19.5723	-50.2862	-133.147	-25.7944	-76.4446	-133.697	-36.0866	-96.6602	-167.405	-15.8009	-54.2612	-164.419	-24.1803	-85.8799	-163.105	-41.4871	-112.366	-187.013	-19.2575	-51.5236	-189.183	-26.896	-78.6065	-189.073	-39.2664	-99.3194	-207.237	-24.9886	-34.3571	-209.607	-28.1831	-60.5488	-213.048	-36.8941	-82.5347	-194.903	-5.85432	-2.31333	-201.112	-2.14777	27.567	-163.322	-5.66113	14.7638	
4	0.0333333	-142.271	-32.1899	30.8057	-120.57	-43.5891	9.41196	-102.195	-55.0545	-9.0185	-92.0902	-66.1251	-26.8644	-141.575	-18.9511	-46.7856	-134.83	-23.7991	-72.2721	-128.313	-35.5076	-96.165	-164.01	-15.3651	-59.8761	-161.061	-25.9761	-87.635	-159.851	-40.7441	-111.225	-191.467	-19.9061	-51.3229	-187.333	-27.0796	-80.2295	-190.282	-42.6311	-103.035	-211.9	-24.6604	-37.8671	-208.51	-28.5632	-59.1368	-212.851	-37.3698	-83.0123	-195.329	-4.28746	-1.99536	-195.011	-1.9983	26.4601	-163.874	-6.49347	14.4123	
5	0.0416667	-140.931	-31.7361	26.5537	-121.479	-42.8106	9.85339	-103.972	-54.2624	-13.4069	-91.7071	-66.1904	-28.2763	-140.986	-19.111	-45.8645	-137.152	-25.2475	-76.71	-128.983	-35.6249	-96.363	-168.26	-16.0126	-59.5874	-161.876	-24.1467	-85.7243	-162.838	-41.8086	-112.378	-191.887	-19.4965	-51.756	-190.354	-26.9637	-80.408	-191.728	-40.6521	-101.063	-209.618	-23.8941	-37.4127	-209.327	-28.1022	-57.8586	-213.406	-39.4594	-81.8289	-192.444	-4.77024	1.43749	-197.786	-2.66275	27.9106	-160.836	-6.45845	15.7674	
6	0.05	-138.698	-31.4925	27.4053	-118.966	-43.1406	9.57996	-106.207	-55.2683	-9.32957	-94.8551	-65.2612	-27.7949	-144.556	-19.1541	-51.5427	-134.66	-24.9835	-72.2816	-131.751	-35.9638	-97.0061	-169.616	-16.1746	-60.1895	-162.54	-23.5293	-83.5779	-161.385	-42.0381	-114.384	-187.759	-19.7123	-49.0646	-189.718	-26.2312	-77.521	-188.218	-41.9563	-104.514	-212.163	-24.4856	-37.9331	-211.412	-30.0438	-63.4502	-213.058	-39.6336	-83.5833	-191.876	-7.25497	1.90389	-199.684	-2.77111	29.4748	-164.393	-4.79885	16.735	
7	0.0583333	-139.814	-31.0326	32.1304	-120.431	-43.2025	12.5416	-101.742	-54.0456	-12.3502	-91.5131	-65.1727	-27.2734	-143.701	-18.5326	-50.0807	-133.756	-26.5691	-76.7344	-132.841	-35.7487	-97.5596	-167.966	-16.3705	-59.6383	-163.819	-24.0999	-84.3716	-158.359	-44.4199	-115.799	-187.53	-19.5413	-50.4021	-192.219	-26.768	-77.9673	-191.269	-40.7591	-101.113	-211.318	-23.3817	-40.2125	-210.737	-28.7967	-59.7978	-211.756	-40.8217	-85.7334	-197.295	-6.35503	1.37853	-199.449	-2.83084	27.5941	-161.369	-4.13146	16.0831	
8	0.0666667	-139.862	-32.1341	29.2547	-121.178	-43.5446	9.47367	-106.511	-54.0166	-11.5553	-93.8589	-64.9103	-31.7187	-143.918	-18.3618	-47.527	-134.918	-25.7289	-77.6693	-127.622	-39.2098	-100.333	-167.701	-15.6473	-56.0893	-166.273	-25.0545	-87.8144	-161.221	-42.8063	-113.606	-189.29	-19.3482	-52.1367	-191.411	-26.2308	-77.4342	-187.637	-41.9647	-102.971	-212.17	-24.1804	-35.5859	-210.777	-28.3706	-58.5403	-212.991	-39.0369	-83.9582	-194.396	-7.04472	0.092172	-200.283	-3.55708	30.704	-163.435	-6.46836	17.0844	
9	0.075	-142.27	-32.282	30.6663	-117.737	-44.3036	11.0038	-102.161	-54.4412	-8.72274	-96.8587	-65.7706	-28.2681	-142.429	-18.9098	-48.3209	-137.518	-23.9176	-73.3056	-131.015	-36.4736	-98.5185	-165.86	-15.4372	-58.0121	-162.032	-23.8266	-85.3591	-160.537	-42.5032	-111.799	-185.752	-18.8622	-52.6941	-192.093	-24.8391	-76.0037	-189.313	-41.3295	-101.052	-207.64	-24.671	-34.2412	-211.439	-29.4761	-61.1337	-211.153	-39.395	-82.3117	-197.011	-6.03943	0.788629	-199.339	-2.71296	27.0296	-162.36	-6.11529	18.2599	
10	0.0833333	-139.74	-31.9421	29.0705	-119.966	-44.1011	11.2094	-104.061	-55.5498	-11.2375	-93.9021	-66.4576	-30.44	-144.648	-18.948	-49.6385	-134.669	-25.0063	-73.5787	-131.528	-38.3814	-99.9972	-166.806	-15.0008	-59.5356	-162.76	-23.9588	-84.2266	-164.21	-44.094	-111.101	-192.233	-19.0993	-51.1567	-191.216	-25.2738	-76.4213	-188.233	-43.0931	-102.226	-207.684	-24.535	-34.8296	-210.56	-28.8473	-61.1252	-210.582	-41.3022	-81.6938	-196.901	-5.9658	1.41236	-198.763	-4.14595	26.4622	-164.331	-5.21387	17.1786	
